<?xml version="1.0" standalone="no"?><!DOCTYPE svg PUBLIC "-//W3C//DTD SVG 1.1//EN" "http://www.w3.org/Graphics/SVG/1.1/DTD/svg11.dtd"><svg t="1707205115766" class="icon" viewBox="0 0 2161 1024" version="1.1" xmlns="http://www.w3.org/2000/svg" p-id="13939" width="422.0703125" height="200" xmlns:xlink="http://www.w3.org/1999/xlink"><path d="M853.333333 1024a113.777778 113.777778 0 0 1-101.717333-62.577778l-204.8-408.632889-116.451556 145.123556A113.777778 113.777778 0 0 1 341.333333 740.295111H113.777778a113.436444 113.436444 0 1 1 0-226.872889h172.885333l193.422222-241.038222a113.777778 113.777778 0 0 1 190.634667 20.138667l153.6 306.403555 147.228444-513.706666a113.777778 113.777778 0 0 1 213.333334-14.904889l197.575111 443.164444H1536a113.436444 113.436444 0 1 1 0 226.872889h-227.555556a113.777778 113.777778 0 0 1-103.936-67.356444L1104.213333 447.943111l-141.482666 493.681778a113.777778 113.777778 0 0 1-98.816 81.749333C860.330667 1024 856.803556 1024 853.333333 1024z" fill="#FF6E6E" p-id="13940"></path><path d="M1820.444444 967.111111a341.333333 341.333333 0 1 1 0-682.666667 341.333333 341.333333 0 0 1 0 682.666667z m0-495.900444a154.737778 154.737778 0 1 0 0.910223 309.475555A154.737778 154.737778 0 0 0 1820.444444 471.210667z" fill="#0C0058" p-id="13941"></path></svg>